Coordinates
version=1
nRows=14
nColumns=42
inDegrees=yes

Units are S.I. units (second, meters, Newtons, ...)
If the header above contains a line with 'inDegrees', this indicates whether rotational values are in degrees (yes) or radians (no).

endheader
time	pelvis_tilt	pelvis_list	pelvis_rotation	pelvis_tx	pelvis_ty	pelvis_tz	hip_flexion_r	hip_adduction_r	hip_rotation_r	knee_angle_r	knee_adduction_r	knee_angle_r_beta	ankle_angle_r	subtalar_angle_r	mtp_angle_r	hip_flexion_l	hip_adduction_l	hip_rotation_l	knee_angle_l	knee_adduction_l	knee_angle_l_beta	ankle_angle_l	subtalar_angle_l	mtp_angle_l	lumbar_extension	lumbar_bending	lumbar_rotation	arm_flex_r	arm_add_r	arm_rot_r	elbow_flex_r	pro_sup_r	wrist_flex_r	wrist_dev_r	arm_flex_l	arm_add_l	arm_rot_l	elbow_flex_l	pro_sup_l	wrist_flex_l	wrist_dev_l
      1.00000000	      5.39439643	     -0.39911757	     -1.68824265	     -0.61923017	      0.93385818	     -0.09265072	     11.04308885	     -8.24208925	    -23.51793078	     34.28178807	      1.83196177	      0.59833008	     15.06767883	     14.56155828	     -9.66932760	     -3.93806016	     -2.44726445	    -17.32939065	     27.23222294	      1.11886932	      0.47529195	     23.20211731	      3.01625901	     -9.66932760	    -16.55312897	      0.12526210	     -1.57524009	      7.85910783	     -9.18141612	     -0.85759905	     35.62093314	     90.00000001	      0.00000000	      0.00000000	    -13.68848226	     -8.97214138	     -3.77689076	     52.14862738	     90.00000001	      0.00000000	      0.00000000
      1.01000000	      5.24315340	     -0.35983684	     -1.77024751	     -0.61732800	      0.93363150	     -0.09138729	     11.11286254	     -8.19137424	    -23.51094111	     34.30649025	      1.81356535	      0.59876121	     15.10398320	     14.55995131	     -9.66644399	     -3.92791842	     -2.47442097	    -17.35345402	     27.20836746	      1.11653059	      0.47487560	     23.20533696	      3.02031641	     -9.66644399	    -16.54223497	      0.18862142	     -1.68299806	      8.07470404	     -9.12074246	     -0.84621562	     35.74289724	     90.00000001	      0.00000000	      0.00000000	    -13.60967156	     -8.95511887	     -3.73648101	     52.17773135	     90.00000001	      0.00000000	      0.00000000
      1.02000000	      4.98001828	     -0.39517886	     -1.87254365	     -0.61537053	      0.93313289	     -0.08992756	     11.40178630	     -7.94151081	    -23.38863797	     34.47079081	      1.58633440	      0.60162880	     15.47823222	     14.47504062	     -9.63593564	     -3.76251632	     -2.65227439	    -17.51603486	     27.29905169	      1.11330766	      0.47645833	     23.26099837	      3.10677927	     -9.63593564	    -16.38282308	      0.33229062	     -1.78749639	      8.21038344	     -9.08683224	     -0.68661353	     36.02803499	     90.00000001	      0.00000000	      0.00000000	    -13.66318073	     -9.03639435	     -3.48434973	     52.33986615	     90.00000001	      0.00000000	      0.00000000
      1.03000000	      4.83636737	     -0.34929954	     -1.91559770	     -0.61347964	      0.93295748	     -0.08875561	     11.45603714	     -7.89949331	    -23.33662772	     34.49630475	      1.58733814	      0.60207410	     15.50453129	     14.47489248	     -9.63310397	     -3.74683869	     -2.66830549	    -17.54230980	     27.27894167	      1.08553456	      0.47610735	     23.25969821	      3.11878187	     -9.63310397	    -16.38377100	      0.40984550	     -1.92767756	      8.41566814	     -9.03677172	     -0.66405240	     36.16444031	     90.00000001	      0.00000000	      0.00000000	    -13.58247037	     -9.02605123	     -3.43797302	     52.36100339	     90.00000001	      0.00000000	      0.00000000
      1.04000000	      4.69034607	     -0.33387280	     -1.92760512	     -0.61154057	      0.93278463	     -0.08759394	     11.51586680	     -7.79134071	    -23.18144165	     34.54963593	      1.57077642	      0.60300490	     15.59878669	     14.44981044	     -9.62835667	     -3.71639508	     -2.71497964	    -17.57676758	     27.26826694	      1.00234402	      0.47592104	     23.23810597	      3.14794805	     -9.62835667	    -16.36771255	      0.53978743	     -2.15142650	      8.61807028	     -8.96897584	     -0.61159827	     36.37446946	     90.00000001	      0.00000000	      0.00000000	    -13.57836272	     -9.04495621	     -3.36006504	     52.37366158	     90.00000001	      0.00000000	      0.00000000
      1.05000000	      4.54004326	     -0.29950613	     -1.95098277	     -0.60970866	      0.93267409	     -0.08643316	     11.57319770	     -7.71646521	    -23.06031533	     34.56175007	      1.57866388	      0.60321633	     15.69718389	     14.40670874	     -9.62484552	     -3.66814270	     -2.74763083	    -17.61281368	     27.27668161	      0.94386902	      0.47606790	     23.20996929	      3.17712102	     -9.62484552	    -16.36990527	      0.64030522	     -2.31745036	      8.79376139	     -8.91693730	     -0.55460708	     36.55875590	     90.00000001	      0.00000000	      0.00000000	    -13.50972352	     -9.04671776	     -3.29192479	     52.42243526	     90.00000001	      0.00000000	      0.00000000
      1.06000000	      4.19496583	     -0.41208614	     -2.06491062	     -0.60797559	      0.93212115	     -0.08500477	     11.82970469	     -7.34691064	    -22.02254000	     34.50550142	      1.95537385	      0.60223461	     15.91773049	     12.86345921	     -9.53645139	     -3.19621879	     -3.06073908	    -18.30328163	     27.77848809	      0.63428132	      0.48482608	     23.41702598	      4.03729460	     -9.53645139	    -16.15049005	      0.90079526	     -2.33388835	      8.63248949	     -9.26074269	      0.70220831	     37.45306219	     90.00000001	      0.00000000	      0.00000000	    -13.55504343	     -9.21347508	     -2.74248707	     52.58929566	     90.00000001	      0.00000000	      0.00000000
      1.07000000	      4.07807998	     -0.35801483	     -2.08407081	     -0.60615096	      0.93211892	     -0.08386532	     11.83801723	     -7.30461710	    -21.92226390	     34.50100121	      1.96119370	      0.60215607	     15.96337914	     12.84718692	     -9.53297473	     -3.17021393	     -3.07597194	    -18.31194756	     27.80513019	      0.58200080	      0.48529107	     23.37376320	      4.06317048	     -9.53297473	    -16.19238574	      0.98895641	     -2.48535000	      8.80651606	     -9.20707461	      0.71469520	     37.58786355	     90.00000001	      0.00000000	      0.00000000	    -13.48491163	     -9.20566599	     -2.72601813	     52.61746891	     90.00000001	      0.00000000	      0.00000000
      1.08000000	      3.92754415	     -0.40376353	     -2.03163507	     -0.60434732	      0.93209239	     -0.08281095	     11.74582727	     -7.12592542	    -21.54484243	     34.29895168	      2.20842403	      0.59862964	     16.26149787	     12.50409971	     -9.50988999	     -2.92810704	     -3.23725389	    -18.49085799	     28.18353766	      0.36653817	      0.49189553	     23.13848712	      4.21867874	     -9.50988999	    -16.18993107	      1.21799911	     -2.68250361	      8.86233518	     -9.23962719	      0.93014519	     38.00440822	     90.00000001	      0.00000000	      0.00000000	    -13.49604247	     -9.21019680	     -2.69970571	     52.78511447	     90.00000001	      0.00000000	      0.00000000
      1.09000000	      3.81314810	     -0.33465422	     -2.09104905	     -0.60257923	      0.93216448	     -0.08158616	     11.74988750	     -7.08464571	    -21.43624586	     34.27974291	      2.20102751	      0.59829438	     16.27405329	     12.45368950	     -9.50595406	     -2.86684027	     -3.24465352	    -18.50783712	     28.27439969	      0.32396027	      0.49348137	     23.10259871	      4.25150277	     -9.50595406	    -16.23401241	      1.28968697	     -2.79507032	      9.03359109	     -9.19885652	      0.98745555	     38.16288677	     90.00000001	      0.00000000	      0.00000000	    -13.43140579	     -9.21855726	     -2.67843092	     52.80214107	     90.00000001	      0.00000000	      0.00000000
      1.10000000	      3.53760087	     -0.50974009	     -2.15111420	     -0.60103960	      0.93191703	     -0.08023333	     11.82914977	     -6.66176441	    -20.64754718	     34.01172112	      2.54526776	      0.59361652	     16.14002424	     11.04682247	     -9.40820657	     -2.29464547	     -3.70031570	    -19.12491173	     29.12948653	      0.03511270	      0.50840545	     23.19408025	      5.01435753	     -9.40820657	    -16.12772785	      1.64114128	     -2.81667095	      8.93910123	     -9.53107373	      2.10562579	     38.87726154	     90.00000001	      0.00000000	      0.00000000	    -13.39746513	     -9.21330005	     -2.60592828	     52.89889978	     90.00000001	      0.00000000	      0.00000000
      1.11000000	      3.43207788	     -0.41151631	     -2.26143712	     -0.59917636	      0.93209357	     -0.07897872	     11.80272076	     -6.68400452	    -20.64213966	     33.97790330	      2.54908490	      0.59302629	     16.15995156	     11.04625870	     -9.40648908	     -2.24635103	     -3.66921541	    -19.10894604	     29.22059801	      0.01997595	      0.50999564	     23.14236142	      5.02410874	     -9.40648908	    -16.15387871	      1.68377666	     -2.83783136	      9.07448539	     -9.50020572	      2.11454623	     38.96461118	     90.00000001	      0.00000000	      0.00000000	    -13.34204608	     -9.21057889	     -2.59956738	     52.92799348	     90.00000001	      0.00000000	      0.00000000
      1.12000000	      3.27981013	     -0.43175937	     -2.18318404	     -0.59766697	      0.93214466	     -0.07798167	     11.67794442	     -6.58710647	    -20.55357970	     33.68135330	      2.74857172	      0.58785051	     16.35733896	     11.09112823	     -9.38617731	     -1.66972099	     -3.90627823	    -19.28392442	     30.24488814	     -0.22969989	      0.52787288	     22.58037241	      4.91864320	     -9.38617731	    -16.19865924	      1.89683393	     -3.02957320	      9.09799841	     -9.57077294	      2.30801827	     39.42428992	     90.00000001	      0.00000000	      0.00000000	    -13.35695765	     -9.22649279	     -2.59530303	     53.16848924	     90.00000001	      0.00000000	      0.00000000
      1.13000000	      3.21951400	     -0.29523773	     -2.30018519	     -0.59606541	      0.93242790	     -0.07665491	     11.59055084	     -6.60435330	    -20.52358062	     33.55312927	      2.68414441	      0.58561258	     16.38611863	     11.12756092	     -9.37774458	     -1.40070984	     -3.90664189	    -19.24620593	     30.88079651	     -0.27853717	      0.53897157	     22.35865013	      4.90186907	     -9.37774458	    -16.31648282	      1.88095302	     -2.99770292	      9.17789290	     -9.59631822	      2.44726313	     39.61148578	     90.00000001	      0.00000000	      0.00000000	    -13.25497758	     -9.26326233	     -2.60985863	     53.25471630	     90.00000001	      0.00000000	      0.00000000
